<svg id="Layer_1" data-name="Layer 1" xmlns="http://www.w3.org/2000/svg" viewBox="0 0 4740 1258">
  <defs>
    <style>
      .cls-1 {
        fill: #7abdf4;
        stroke: #264066;
        stroke-miterlimit: 10;
        stroke-width: 5px;
      }
    </style>
  </defs>
  <title>logo</title>
  <g>
    <g>
      <path class="cls-1" d="M201,196.31H550.4q111.75,0,182.37,58.95,85.34,66.94,89,191Q819.34,628.59,648.65,694.3l207.55,397.28H694.7L509.87,709H336.71v382.54H201ZM336.71,588.68H541.8q76.14-1.22,114.21-44.21,37.44-39.9,37.46-98.25-1.24-70-44.83-101.31-34.4-27.64-99.47-27.63H336.71Z"/>
      <path class="cls-1" d="M1167.51,454.21h135.7L1453,900.61h2.45l149.22-446.4H1741l-233.95,637.37H1401.45Z"/>
      <path class="cls-1" d="M2214.44,821.4q0,76.77,44.21,116.67,41.12,40.53,108.07,40.53,78,0,139.39-62l92.72,79.21q-97.64,104.4-229.65,103.16a332.32,332.32,0,0,1-98.25-14.73,238.44,238.44,0,0,1-46.67-21.49,225.57,225.57,0,0,1-44.83-28.86q-40.53-35.6-65.71-99.47-27.62-61.39-27.63-159.65,0-94.55,23.95-157.19,23.95-63.86,61.4-100.71,38.07-37.44,85.35-54,46.66-16.58,92.11-16.58,109.29,1.24,184.83,71.85,76.75,71.84,78,197.72V821.4Zm269-105.61q-2.46-74.29-39.91-112.37-36.85-36.22-94.57-36.23t-94.56,36.23q-36.24,38.09-39.91,112.37Z"/>
      <path class="cls-1" d="M2966.64,978.59q55.26,0,90.26-21.49t35-60.18q0-34.38-20.87-47.89-21.51-14.12-57.11-15.35l-113-9.82q-80.45-7.37-130.79-54-51.58-45.43-52.81-127.11,1.23-98.23,69.39-147.37Q2853,446.23,2955,446.22q44.21,0,79.21,5.53a396.37,396.37,0,0,1,65.71,17.19,375.28,375.28,0,0,1,105.61,64.47l-79.21,92.72a395.63,395.63,0,0,0-78-43.59q-40.53-15.34-93.33-15.35-60.19,0-84.13,21.49-25.19,21.5-25.17,55.26-1.24,21.51,19,37.46,18.42,17.82,65.09,22.72l105.61,8q99.48,7.37,143.69,60.18,41.13,51.58,41.14,130.79-1.24,92.73-75.53,143.07-73.68,51.58-188.51,52.81-156,0-280.62-114.21l89.65-87.81Q2843.21,978.6,2966.64,978.59Z"/>
      <path class="cls-1" d="M3318.48,772.28q0-100.7,16.58-154.74,17.18-52.8,52.81-89,26.39-31.91,73.69-57.1,46.65-23.95,119.73-25.18,75.53,1.24,122.2,25.18,46.05,25.18,71.23,57.1,38.06,36.24,54,89,15.34,54,15.35,154.74t-15.35,153.51a218.64,218.64,0,0,1-54,91.49,198.94,198.94,0,0,1-30.09,27.63q-16,15.36-41.14,26.4-46.68,26.41-122.2,27.63-73.08-1.24-119.73-27.63-47.3-23.94-73.69-54-35.62-38.68-52.81-91.49Q3318.48,873,3318.48,772.28Zm397.28,1.23q0-68.16-6.14-99.47a117.49,117.49,0,0,0-25.18-52.81q-14.13-21.49-41.75-33.77-26.41-12.9-61.41-12.9-32.55,0-60.17,12.9-26.41,12.29-43,33.77-16.58,22.72-24,52.81-7.36,31.31-7.37,98.25,0,66.31,7.37,97,7.37,31.32,24,55.27,16.58,18.42,43,32.55,27.63,13.51,60.17,13.51,35,0,61.41-13.51,27.63-14.12,41.75-32.55a126.62,126.62,0,0,0,25.18-55.27Q3715.76,838.6,3715.77,773.51Z"/>
      <path class="cls-1" d="M3998.84,551.84h-64.47V454.21h64.47V370.08q0-90.87,50.35-133.86,49.11-39.91,123.42-39.91h82.89v121h-73.07q-57.73-1.84-55.27,52.81v84.13H4255.5v97.63H4127.17v539.74H3998.84Z"/>
      <path class="cls-1" d="M4335.33,260.17h128.33v194H4557v97.63h-93.33V923.33q-1.24,48.51,45.44,47.28H4557v121h-66.93q-67.55,0-110.53-41.75-44.21-39.91-44.21-115.44V551.84h-63.86V454.21h63.86Z"/>
    </g>
    <g>
      <g>
        <path class="cls-1" d="M1107.94,1092.32H906.58v-639h201.37V544.4H1028v456.84h79.9Z"/>
        <circle class="cls-1" cx="995.91" cy="375.85" r="88.95"/>
      </g>
      <g>
        <path class="cls-1" d="M1801.6,454.36H2003v639H1801.6v-91.08h79.9V545.44h-79.9Z"/>
        <circle class="cls-1" cx="1913.17" cy="375.85" r="88.95"/>
      </g>
    </g>
  </g>
</svg>
